{"title":"Keyshia Cole - I Choose You [Music Video] 720p [Sbyky]","uid":9278837,"size":71606803,"categoryP":"video","categoryS":"music_videos","magnet":"?xt=urn:btih:0a868ac98b6c630abf9df232cb0300de4661b075&amp;dn=Keyshia+Cole+-+I+Choose+You+%5BMusic+Video%5D+720p+%5BSbyky%5D&amp;tr=udp%3A%2F%2Ftracker.openbittorrent.com%3A80&amp;tr=udp%3A%2F%2Fopen.demonii.com%3A1337&amp;tr=udp%3A%2F%2Ftracker.coppersurfer.tk%3A6969&amp;tr=udp%3A%2F%2Fexodus.desync.com%3A6969","seeders":0,"leechers":1,"uploader":"Sbyky","files":1,"time":1385905120,"description":"[IMG]http://cdn.piczend.com/images/l3WulDdx/1385882480_ichooseyou.jpg[/IMG]\n\nGeneral\nComplete name                            : Keyshia Cole - I Choose You [Music Video] 720p [Sbyky].MP4\nFormat                                   : MPEG-4\nFormat profile                           : Base Media\nCodec ID                                 : isom\nFile size                                : 68.3 MiB\nDuration                                 : 4mn 33s\nOverall bit rate mode                    : Variable\nOverall bit rate                         : 2 091 Kbps\nEncoded date                             : UTC 2013-10-03 04:57:34\nTagged date                              : UTC 2013-10-03 04:57:34\n\nVideo\nID                                       : 1\nFormat                                   : AVC\nFormat/Info                              : Advanced Video Codec\nFormat profile                           : &lt;a class=&quot;__cf_email__&quot; href=&quot;/cdn-cgi/l/email-protection&quot; data-cfemail=&quot;c28fa3abac828ef1ecf3&quot;&gt;[email&amp;#160;protected]&lt;/a&gt;&lt;script cf-hash='f9e31' type=&quot;text/javascript&quot;&gt;\n/* &lt;![CDATA[ */!function(){try{var t=&quot;currentScript&quot;in document?document.currentScript:function(){for(var t=document.getElementsByTagName(&quot;script&quot;),e=t.length;e--;)if(t[e].getAttribute(&quot;cf-hash&quot;))return t[e]}();if(t&amp;&amp;t.previousSibling){var e,r,n,i,c=t.previousSibling,a=c.getAttribute(&quot;data-cfemail&quot;);if(a){for(e=&quot;&quot;,r=parseInt(a.substr(0,2),16),n=2;a.length-n;n+=2)i=parseInt(a.substr(n,2),16)^r,e+=String.fromCharCode(i);e=document.createTextNode(e),c.parentNode.replaceChild(e,c)}}}catch(u){}}();/* ]]&gt; */&lt;/script&gt;\nFormat settings, CABAC                   : Yes\nFormat settings, ReFrames                : 3 frames\nCodec ID                                 : avc1\nCodec ID/Info                            : Advanced Video Coding\nDuration                                 : 4mn 33s\nBit rate                                 : 1 834 Kbps\nWidth                                    : 1 280 pixels\nHeight                                   : 720 pixels\nDisplay aspect ratio                     : 16:9\nFrame rate mode                          : Variable\nFrame rate                               : 23.976 fps\nMinimum frame rate                       : 23.974 fps\nMaximum frame rate                       : 12 857.143 fps\nColor space                              : YUV\nChroma subsampling                       : 4:2:0\nBit depth                                : 8 bits\nScan type                                : Progressive\nBits/(Pixel*Frame)                       : 0.083\nStream size                              : 59.9 MiB (88%)\nEncoded date                             : UTC 2013-10-03 04:57:34\nTagged date                              : UTC 2013-10-03 04:57:34\n\nAudio\nID                                       : 2\nFormat                                   : AAC\nFormat/Info                              : Advanced Audio Codec\nFormat profile                           : LC\nCodec ID                                 : 40\nDuration                                 : 4mn 33s\nBit rate mode                            : Variable\nBit rate                                 : 254 Kbps\nChannel(s)                               : 2 channels\nChannel positions                        : Front: L R\nSampling rate                            : 44.1 KHz\nCompression mode                         : Lossy\nDelay relative to video                  : 42ms\nStream size                              : 8.28 MiB (12%)\nEncoded date                             : UTC 2013-10-03 04:57:01\nTagged date                              : UTC 2013-10-03 04:57:01\n\nShared By Sbyky\n[IMG]http://cdn.piczend.com/images/X3Ag13N3/1379453786_saythanks.gif[/IMG]\n[IMG]http://cdn.piczend.com/images/gGqhX2S8/1379453780_keepseeding.gif[/IMG]","torrent":{"xt":"urn:btih:0a868ac98b6c630abf9df232cb0300de4661b075","amp;dn":"Keyshia+Cole+-+I+Choose+You+%5BMusic+Video%5D+720p+%5BSbyky%5D","amp;tr":["udp%3A%2F%2Ftracker.openbittorrent.com%3A80","udp%3A%2F%2Fopen.demonii.com%3A1337","udp%3A%2F%2Ftracker.coppersurfer.tk%3A6969","udp%3A%2F%2Fexodus.desync.com%3A6969"],"infoHash":"0a868ac98b6c630abf9df232cb0300de4661b075","infoHashBuffer":{"type":"Buffer","data":[10,134,138,201,139,108,99,10,191,157,242,50,203,3,0,222,70,97,176,117]},"announce":[],"urlList":[]}}